# xmcd CD database file
#
# Track frame offsets:
#	150
#	12892
#	26399
#	40161
#	54363
#	68980
#	81812
#	94249
#	106971
#	120253
#	134547
#	150257
#	162509
#	184906
#	249053
#	282490
#
# Disc length: 4389 seconds
#
# Revision: 0
# Processed by: cddbd v1.5.2PL0 Copyright (c) Steve Scherf et al.
# Submitted via: CDex 1.51
#
DISCID=c7112310
DTITLE=Dizzy Gillespie - Ken Burns Jazz
DYEAR=2000
DGENRE=Jazz
TTITLE0=Pickin' the Cabbage
TTITLE1=Disorder at the Border
TTITLE2=Salt Peanuts
TTITLE3=I Can't Get Started
TTITLE4=A Night In Tunisia
TTITLE5=Dizzy Atmosphere
TTITLE6=Groovin' High
TTITLE7=Things To Come
TTITLE8=One Bass Hit, No. 2
TTITLE9=Manteca
TTITLE10=Bloomdido
TTITLE11=Tin Tin Deo
TTITLE12=Birk's Works
TTITLE13=The Eternal Triangle
TTITLE14=Swing Low, Sweet Cadillac
TTITLE15=No More Blues (Chega de Saudade)
EXTD=YEAR: 2000
EXTT0=
EXTT1=
EXTT2=
EXTT3=
EXTT4=
EXTT5=
EXTT6=
EXTT7=
EXTT8=
EXTT9=
EXTT10=
EXTT11=
EXTT12=
EXTT13=
EXTT14=
EXTT15=
PLAYORDER=
